<svg width="21" height="21" viewBox="0 0 21 21" fill="none" xmlns="http://www.w3.org/2000/svg">
<path d="M11.1576 10.41L11.9048 9.74547L11.3298 9.09892L10.6073 9.57503L11.1576 10.41ZM14.2215 13.8551L15.0605 13.311L15.0192 13.2473L14.9687 13.1905L14.2215 13.8551ZM16.9639 18.0844L17.5089 18.9228L18.3464 18.3784L17.8029 17.5403L16.9639 18.0844ZM14.227 19.8636L13.388 20.4077L13.9327 21.2477L14.7721 20.702L14.227 19.8636ZM11.4846 15.6343L10.5743 16.0483L10.6051 16.116L10.6456 16.1784L11.4846 15.6343ZM9.58104 11.4489L9.03078 10.614L8.31671 11.0845L8.67076 11.863L9.58104 11.4489ZM10.3693 10.9295L9.81905 10.0945L9.81904 10.0945L10.3693 10.9295ZM9.63965 10.3305L10.2742 9.55757L9.6012 9.00511L8.96139 9.59566L9.63965 10.3305ZM10.3693 10.9295L11.0038 10.1566L11.0038 10.1566L10.3693 10.9295ZM11.099 11.5285L11.961 12.0354L12.3944 11.2982L11.7335 10.7556L11.099 11.5285ZM8.76834 15.492L9.54997 16.1157L9.59432 16.0601L9.63036 15.9988L8.76834 15.492ZM5.63883 19.4136L5.00914 20.1904L5.79193 20.8249L6.42045 20.0373L5.63883 19.4136ZM3.10292 17.358L2.32534 16.7293L1.69729 17.5059L2.47323 18.1349L3.10292 17.358ZM6.27238 13.4385L5.59413 12.7037L5.5406 12.7531L5.4948 12.8097L6.27238 13.4385ZM2.01553 6.00557L2.37396 5.07201L1.42906 4.70922L1.07771 5.65845L2.01553 6.00557ZM6.72732 7.81463L7.21734 6.94291L7.1538 6.9072L7.08575 6.88107L6.72732 7.81463ZM10.7349 10.0674L11.6555 10.4579L12.0049 9.63417L11.2249 9.19573L10.7349 10.0674ZM10.3693 10.9295L9.44868 10.539L9.43826 10.5636L9.42917 10.5887L10.3693 10.9295ZM10.0415 11.8336L9.81596 12.8078L10.6795 13.0078L10.9817 12.1744L10.0415 11.8336ZM5.5696 10.7981L5.21597 11.7335L5.27869 11.7572L5.34402 11.7724L5.5696 10.7981ZM0.895664 9.03111L-0.0421562 8.68399L-0.386875 9.61531L0.542034 9.9665L0.895664 9.03111ZM12.5473 1.4705L13.5455 1.53076L13.6062 0.524623L12.5996 0.471873L12.5473 1.4705ZM12.2436 6.5015L13.2233 6.70182L13.2375 6.63244L13.2418 6.56176L12.2436 6.5015ZM11.328 10.9797L11.2757 11.9784L12.1353 12.0234L12.3077 11.18L11.328 10.9797ZM9.41061 10.8792L8.41451 10.9674L8.49109 11.8324L9.35828 11.8779L9.41061 10.8792ZM9.00803 6.33195L8.00902 6.28754L8.00607 6.35394L8.01193 6.42014L9.00803 6.33195ZM9.23184 1.29676L9.28417 0.298131L8.27759 0.245382L8.23283 1.25236L9.23184 1.29676ZM19.2319 6.90777L20.2009 6.66057L19.9507 5.67983L18.973 5.94187L19.2319 6.90777ZM20.0294 10.0338L20.2833 11.001L21.2439 10.7488L20.9984 9.78659L20.0294 10.0338ZM15.1964 11.3026L15.3189 12.2951L15.3855 12.2869L15.4503 12.2698L15.1964 11.3026ZM10.6407 11.865L9.68032 12.1436L9.91771 12.9618L10.7632 12.8574L10.6407 11.865ZM10.3693 10.9295L9.40181 11.1824L9.40519 11.1953L9.40891 11.2081L10.3693 10.9295ZM10.1357 10.036L9.73951 9.11789L8.95106 9.45814L9.16825 10.289L10.1357 10.036ZM14.3568 8.21444L14.098 7.24854L14.0275 7.26741L13.9606 7.29629L14.3568 8.21444ZM10.4103 11.0746L13.4742 14.5197L14.9687 13.1905L11.9048 9.74547L10.4103 11.0746ZM13.3824 14.3992L16.1249 18.6285L17.8029 17.5403L15.0605 13.311L13.3824 14.3992ZM16.4189 17.246L13.682 19.0252L14.7721 20.702L17.5089 18.9228L16.4189 17.246ZM15.0661 19.3195L12.3237 15.0902L10.6456 16.1784L13.388 20.4077L15.0661 19.3195ZM12.3949 15.2203L10.4913 11.0349L8.67076 11.863L10.5743 16.0483L12.3949 15.2203ZM10.1313 12.2839L10.9196 11.7645L9.81904 10.0945L9.03078 10.614L10.1313 12.2839ZM10.9196 11.7645L11.7078 11.245L10.6073 9.57503L9.81905 10.0945L10.9196 11.7645ZM9.00513 11.1034L9.73478 11.7024L11.0038 10.1566L10.2742 9.55757L9.00513 11.1034ZM9.73478 11.7024L10.4644 12.3014L11.7335 10.7556L11.0038 10.1566L9.73478 11.7024ZM10.2369 11.0216L7.90633 14.9851L9.63036 15.9988L11.961 12.0354L10.2369 11.0216ZM7.98672 14.8682L4.85721 18.7898L6.42045 20.0373L9.54997 16.1157L7.98672 14.8682ZM6.26852 18.6367L3.73261 16.5812L2.47323 18.1349L5.00914 20.1904L6.26852 18.6367ZM3.88051 17.9868L7.04996 14.0673L5.4948 12.8097L2.32534 16.7293L3.88051 17.9868ZM6.95064 14.1734L10.3179 11.0653L8.96139 9.59566L5.59413 12.7037L6.95064 14.1734ZM1.6571 6.93912L6.36888 8.74818L7.08575 6.88107L2.37396 5.07201L1.6571 6.93912ZM6.2373 8.68634L10.2449 10.9392L11.2249 9.19573L7.21734 6.94291L6.2373 8.68634ZM9.81429 9.67698L9.44868 10.539L11.2899 11.3199L11.6555 10.4579L9.81429 9.67698ZM9.42917 10.5887L9.10141 11.4927L10.9817 12.1744L11.3094 11.2703L9.42917 10.5887ZM10.2671 10.8593L5.79517 9.8239L5.34402 11.7724L9.81596 12.8078L10.2671 10.8593ZM5.92323 9.86274L1.24929 8.09572L0.542034 9.9665L5.21597 11.7335L5.92323 9.86274ZM1.83348 9.37823L2.95335 6.35269L1.07771 5.65845L-0.0421562 8.68399L1.83348 9.37823ZM11.5491 1.41025L11.2454 6.44125L13.2418 6.56176L13.5455 1.53076L11.5491 1.41025ZM11.2639 6.30119L10.3483 10.7794L12.3077 11.18L13.2233 6.70182L11.2639 6.30119ZM11.3803 9.9811L10.4216 9.93086L10.317 11.9281L11.2757 11.9784L11.3803 9.9811ZM10.4216 9.93086L9.46295 9.88062L9.35828 11.8779L10.317 11.9281L10.4216 9.93086ZM10.4067 10.7911L10.0041 6.24376L8.01193 6.42014L8.41451 10.9674L10.4067 10.7911ZM10.007 6.37635L10.2309 1.34117L8.23283 1.25236L8.00902 6.28754L10.007 6.37635ZM9.17951 2.29539L12.495 2.46913L12.5996 0.471873L9.28417 0.298131L9.17951 2.29539ZM18.2629 7.15497L19.0604 10.281L20.9984 9.78659L20.2009 6.66057L18.2629 7.15497ZM19.7755 9.06657L14.9425 10.3354L15.4503 12.2698L20.2833 11.001L19.7755 9.06657ZM15.0739 10.3101L10.5182 10.8725L10.7632 12.8574L15.3189 12.2951L15.0739 10.3101ZM11.6011 11.5863L11.3297 10.6508L9.40891 11.2081L9.68032 12.1436L11.6011 11.5863ZM11.3368 10.6766L11.1032 9.78312L9.16825 10.289L9.40181 11.1824L11.3368 10.6766ZM10.532 10.9542L14.7531 9.1326L13.9606 7.29629L9.73951 9.11789L10.532 10.9542ZM14.6157 9.18035L19.4908 7.87368L18.973 5.94187L14.098 7.24854L14.6157 9.18035Z" fill="#060F1A"/>
</svg>
