<svg width="46" height="46" viewBox="0 0 46 46" fill="none" xmlns="http://www.w3.org/2000/svg">
<path d="M9.11919 6.8643C8.78677 7.00805 6.90903 8.92173 6.07349 9.9729C2.05747 14.9682 -0.215575 21.7604 0.0359877 28.0045C0.107863 29.7565 0.278566 30.8346 0.673878 32.0475C1.23989 33.7456 2.08443 35.1381 3.27036 36.3241C7.22349 40.2682 13.6473 40.1694 17.5645 36.0995C18.0137 35.6413 18.5258 35.0303 18.7145 34.7428C20.7629 31.6432 21.0145 27.8428 19.4153 24.5725C17.9239 21.5448 15.1747 19.5053 11.8415 18.9842L10.8711 18.8315V18.1846C10.8711 16.4596 11.6348 14.2315 12.9286 12.1651C13.827 10.7456 13.9168 11.0061 11.6708 8.76001C10.6106 7.70884 9.66724 6.81938 9.56841 6.79243C9.46958 6.76548 9.27192 6.80141 9.11919 6.8643ZM11.8235 11.1858C11.1137 12.2819 10.3231 13.9709 9.94575 15.1838C9.31685 17.2592 9.24497 19.5862 9.802 20.0893C9.92778 20.1971 10.2153 20.26 10.8532 20.3139C13.0903 20.4846 14.8153 21.2663 16.4325 22.8475C17.5375 23.9346 18.409 25.462 18.7864 27.0073C19.0918 28.2112 19.0649 29.9991 18.7415 31.2209C18.0407 33.8713 16.2528 35.9467 13.6922 37.0788C12.0122 37.8245 9.93677 37.9772 8.04107 37.501C7.20552 37.2944 5.6063 36.4588 4.86958 35.8389C3.49497 34.6979 2.31802 32.8022 1.84185 30.9694C1.28482 28.7862 1.33872 25.0487 1.96763 21.994C2.56958 19.092 3.60278 16.4686 5.18403 13.8541C6.25317 12.0842 6.90005 11.2127 8.47232 9.4518L9.37974 8.43657L10.6645 9.72133C11.8504 10.9073 11.9403 11.0151 11.8235 11.1858Z" fill="black"/>
<path d="M34.6348 6.86438C33.943 7.16087 31.2297 10.2874 30.0528 12.1292C28.2828 14.8874 26.9442 18.032 26.2344 21.0687C25.4618 24.3929 25.327 28.6156 25.92 31.0503C26.8633 34.9406 29.5227 37.8425 33.0625 38.8488C36.3059 39.7652 39.9985 38.9206 42.4961 36.6925C45.1555 34.3206 46.4133 30.8976 45.8653 27.5195C45.6137 25.9382 44.9938 24.4109 44.1403 23.18C43.5114 22.2906 42.1098 20.9609 41.2024 20.4038C39.9266 19.6132 38.3543 19.0652 36.9348 18.9034L36.3598 18.8406L36.4137 17.8882C36.5215 16.0284 37.1864 14.2136 38.6059 11.9406C38.8754 11.5003 39.0821 11.0601 39.0821 10.9253C39.0821 10.7277 38.8305 10.4042 37.9411 9.46985C36.6114 8.06829 35.3356 6.87337 35.084 6.80149C34.9852 6.77454 34.7875 6.80149 34.6348 6.86438ZM36.234 9.77532L37.4649 11.0062L37.1414 11.5452C35.4973 14.2585 34.6258 17.5468 35.0481 19.4874C35.1828 20.1343 35.3176 20.2152 36.3957 20.314C38.6149 20.5027 40.4567 21.3382 41.9481 22.8296C43.9696 24.8511 44.9039 27.7441 44.4278 30.4843C43.8078 34.0421 41.1125 36.8542 37.5907 37.5999C36.6563 37.8066 34.9582 37.8066 34.0328 37.6089C30.475 36.8452 27.8696 33.9523 27.1688 30.0081C26.9801 28.957 26.9532 25.6507 27.1239 24.3031C27.8067 18.6788 30.3043 13.3511 34.1227 9.33509C34.536 8.89485 34.9043 8.53548 34.9403 8.53548C34.9672 8.53548 35.5512 9.09251 36.234 9.77532Z" fill="black"/>
</svg>
