<svg width="96" height="96" viewBox="0 0 96 96" fill="none" xmlns="http://www.w3.org/2000/svg">
<path d="M63.7102 46.7975C71.6143 46.7975 78.0219 40.39 78.0219 32.4858C78.0219 24.5817 71.6143 18.1741 63.7102 18.1741C55.806 18.1741 49.3984 24.5817 49.3984 32.4858C49.3984 40.39 55.806 46.7975 63.7102 46.7975Z" stroke="black" stroke-linecap="round" stroke-linejoin="round"/>
<path d="M84.7354 41.68C84.3486 42.5564 84.2332 43.5286 84.4041 44.4712C84.575 45.4138 85.0244 46.2836 85.6943 46.9684L85.8686 47.1428C86.4089 47.6825 86.8376 48.3234 87.13 49.0289C87.4225 49.7344 87.573 50.4907 87.573 51.2544C87.573 52.0181 87.4225 52.7743 87.13 53.4798C86.8376 54.1853 86.4089 54.8262 85.8686 55.366C85.3289 55.9063 84.688 56.3349 83.9825 56.6274C83.277 56.9198 82.5207 57.0704 81.757 57.0704C80.9933 57.0704 80.2371 56.9198 79.5316 56.6274C78.8261 56.3349 78.1852 55.9063 77.6454 55.366L77.4711 55.1916C76.7863 54.5217 75.9165 54.0724 74.9739 53.9015C74.0313 53.7305 73.0591 53.8459 72.1827 54.2327C71.3233 54.6011 70.5903 55.2127 70.074 55.9922C69.5578 56.7718 69.2807 57.6853 69.277 58.6204V59.1143C69.277 60.6556 68.6647 62.1338 67.5748 63.2236C66.485 64.3135 65.0068 64.9258 63.4655 64.9258C61.9243 64.9258 60.4461 64.3135 59.3562 63.2236C58.2664 62.1338 57.6541 60.6556 57.6541 59.1143V58.8528C57.6316 57.891 57.3203 56.9583 56.7606 56.1758C56.201 55.3933 55.4188 54.7973 54.5159 54.4652C53.6395 54.0784 52.6673 53.963 51.7247 54.1339C50.7821 54.3048 49.9123 54.7542 49.2275 55.4241L49.0532 55.5984C48.5135 56.1387 47.8725 56.5674 47.167 56.8598C46.4615 57.1523 45.7053 57.3028 44.9416 57.3028C44.1779 57.3028 43.4217 57.1523 42.7162 56.8598C42.0107 56.5674 41.3697 56.1387 40.83 55.5984C40.2897 55.0587 39.861 54.4178 39.5686 53.7123C39.2761 53.0068 39.1256 52.2505 39.1256 51.4868C39.1256 50.7231 39.2761 49.9669 39.5686 49.2614C39.861 48.5559 40.2897 47.915 40.83 47.3752L41.0044 47.2009C41.6742 46.5161 42.1236 45.6463 42.2945 44.7037C42.4654 43.7611 42.35 42.7889 41.9632 41.9125C41.5949 41.0531 40.9833 40.3201 40.2037 39.8038C39.4242 39.2876 38.5106 39.0105 37.5756 39.0068H37.0816C35.5403 39.0068 34.0622 38.3945 32.9723 37.3046C31.8825 36.2148 31.2702 34.7366 31.2702 33.1953C31.2702 31.654 31.8825 30.1759 32.9723 29.086C34.0622 27.9962 35.5403 27.3839 37.0816 27.3839H37.3431C38.3049 27.3614 39.2377 27.0501 40.0202 26.4904C40.8027 25.9308 41.3987 25.1486 41.7308 24.2457C42.1176 23.3693 42.233 22.3971 42.062 21.4545C41.8911 20.5119 41.4418 19.6421 40.7719 18.9573L40.5976 18.783C40.0572 18.2433 39.6286 17.6023 39.3361 16.8968C39.0437 16.1913 38.8931 15.4351 38.8931 14.6714C38.8931 13.9077 39.0437 13.1515 39.3361 12.446C39.6286 11.7405 40.0572 11.0995 40.5976 10.5598C41.1373 10.0195 41.7782 9.59084 42.4837 9.29838C43.1892 9.00592 43.9454 8.85539 44.7091 8.85539C45.4729 8.85539 46.2291 9.00592 46.9346 9.29838C47.6401 9.59084 48.281 10.0195 48.8207 10.5598L48.9951 10.7341C49.6799 11.404 50.5497 11.8534 51.4923 12.0243C52.4349 12.1952 53.4071 12.0798 54.2835 11.693H54.5159C55.3754 11.3247 56.1083 10.7131 56.6246 9.93352C57.1409 9.15395 57.4179 8.24043 57.4217 7.3054V6.81143C57.4217 5.27014 58.0339 3.79198 59.1238 2.70213C60.2136 1.61227 61.6918 1 63.2331 1C64.7744 1 66.2525 1.61227 67.3424 2.70213C68.4322 3.79198 69.0445 5.27014 69.0445 6.81143V7.07295C69.0482 8.00797 69.3253 8.92149 69.8416 9.70107C70.3579 10.4806 71.0908 11.0922 71.9502 11.4606C72.8266 11.8474 73.7988 11.9628 74.7414 11.7918C75.684 11.6209 76.5538 11.1716 77.2386 10.5017L77.413 10.3273C77.9527 9.78702 78.5936 9.35838 79.2991 9.06592C80.0046 8.77347 80.7609 8.62293 81.5246 8.62293C82.2883 8.62293 83.0445 8.77347 83.75 9.06592C84.4555 9.35838 85.0964 9.78702 85.6362 10.3273C86.1765 10.8671 86.6051 11.508 86.8976 12.2135C87.19 12.919 87.3406 13.6752 87.3406 14.4389C87.3406 15.2027 87.19 15.9589 86.8976 16.6644C86.6051 17.3699 86.1765 18.0108 85.6362 18.5505L85.4618 18.7249C84.7919 19.4097 84.3426 20.2795 84.1717 21.2221C84.0008 22.1647 84.1161 23.1369 84.5029 24.0133V24.2457C84.8713 25.1052 85.4829 25.8381 86.2624 26.3544C87.042 26.8707 87.9555 27.1477 88.8906 27.1514H89.3845C90.9258 27.1514 92.404 27.7637 93.4938 28.8536C94.5837 29.9434 95.196 31.4216 95.196 32.9629C95.196 34.5042 94.5837 35.9823 93.4938 37.0722C92.404 38.162 90.9258 38.7743 89.3845 38.7743H89.123C88.188 38.778 87.2745 39.0551 86.4949 39.5714C85.7153 40.0876 85.1037 40.8206 84.7354 41.68Z" stroke="black" stroke-linecap="round" stroke-linejoin="round"/>
<path d="M14.1436 57.5574C16.0687 56.8936 20.7951 55.327 21.9103 55.1677C23.3043 54.9685 29.9331 53.5617 34.0582 56.5617C38.4394 59.748 54.8194 68.8237 55.7651 69.9044C57.1591 71.4976 58.1548 79.2643 49.9898 79.0651L33.0625 69.7053M55.1676 77.4719C65.4568 75.6132 87.5196 71.4493 88.425 71.2984C90.8147 70.9001 98.1831 74.6839 92.2087 82.4506C79.3306 85.9024 53.0169 93.4036 49.9898 94.2002C46.2061 95.1959 42.6214 96.1917 34.4565 91.0139C26.2915 85.8361 25.0966 84.0437 14.5419 83.048" stroke="black" stroke-linejoin="round"/>
<path d="M1 82.0523V59.3497C1 55.6102 4.03146 52.5787 7.77095 52.5787C11.5104 52.5787 14.5419 55.6102 14.5419 59.3497V82.0523C14.5419 85.7918 11.5104 88.8232 7.77095 88.8232C4.03146 88.8232 1 85.7918 1 82.0523Z" stroke="#060F1A"/>
</svg>
