<svg width="96" height="94" viewBox="0 0 96 94" fill="none" xmlns="http://www.w3.org/2000/svg">
<path d="M69.0279 62.7878L83.4344 76.9535M64.6951 67.1132L79.2099 81.4952M22.8837 30.3471L18.5509 29.2658C18.0093 29.1216 16.9262 28.617 15.9513 26.9949C14.8793 25.2113 12.3767 21.0475 11.8351 19.858C11.2935 18.6685 11.8351 16.2895 12.2684 15.6407C12.7017 14.9919 16.4929 11.099 17.2511 10.4502C18.0093 9.80135 20.3924 9.0444 22.2338 10.0176C24.0752 10.9908 27.5415 12.9373 28.5163 13.478C29.4912 14.0186 30.8994 14.8837 31.441 16.6139C31.8743 17.998 32.2714 19.7859 32.4159 20.5068C35.7377 23.859 42.1051 30.3028 43.0312 31.1041C44.656 32.5098 43.0312 35.1051 41.2981 33.9156L31.2243 23.859L26.35 28.7251L36.0987 38.4573C37.5069 39.9712 35.6654 42.5665 33.824 41.0526L22.8837 30.3471ZM54.0798 27.5356L57.4377 24.2915C56.9322 22.3811 56.4628 18.344 57.4377 14.4512C58.5016 10.2028 60.6873 7.20599 63.7202 4.93524C67.2774 2.27197 69.4714 0.718739 74.0106 1.04235C78.56 1.3667 77.9983 5.01289 77.8018 6.12468C77.4768 7.96298 74.7688 9.90948 73.469 10.9908C72.2863 11.9747 71.3785 15.0505 72.3858 17.2627C73.469 19.6417 75.0938 21.48 77.2602 21.8044C79.9468 22.2067 81.7013 21.6963 82.8928 20.5068C84.0843 19.3173 86.1967 17.0824 86.9006 16.6139C88.2004 15.7488 90.8001 15.5325 92.3166 17.8034C93.8331 20.0742 92.8582 26.3461 89.392 30.4553C85.9257 34.5644 82.6761 35.7539 80.8347 36.4027C78.9933 37.0515 75.852 37.9166 70.1111 36.8353C69.8944 36.7632 69.2878 36.8353 68.5946 37.7003C67.728 38.7817 37.8318 68.7353 37.2902 69.276C36.7486 69.8166 36.6403 70.3573 36.9653 71.0061C37.3986 71.8712 38.0485 77.4943 36.207 81.3872C34.3656 85.28 32.5924 88.3128 27.9747 91.0112C23.5336 93.6065 19.4175 92.9577 18.9842 92.8495C18.5509 92.7414 16.1679 91.5519 16.1679 89.0648C16.1679 86.6833 19.6341 83.9824 20.1757 83.3336C20.7173 82.6848 23.2319 79.1163 21.2589 75.8722C19.4175 72.8444 16.8178 71.1143 12.9183 72.4119C9.17777 73.6566 9.12714 76.6292 6.74411 77.6024C4.79751 78.3974 1.11149 77.7105 1.00317 74.0339C0.901263 70.5751 3.27788 65.2749 5.011 63.3285C6.74411 61.3821 11.3137 57.4411 15.6263 56.8404C20.2841 56.1915 21.3673 56.6241 22.7754 56.8404C24.4374 57.0956 24.6373 56.9409 25.5917 56.0834C26.6749 55.1102 44.8004 36.7992 54.0798 27.5356ZM56.8961 64.9505C60.4706 61.3099 67.728 53.9206 68.1613 53.4881C69.0279 52.623 69.7861 52.1905 71.3026 53.7044C72.8742 55.2733 90.2135 72.0335 92.4249 74.6827C95.1329 77.9267 95.2412 81.6034 94.8079 83.7661C94.3747 85.9288 92.2559 91.8555 85.6008 92.7413C79.1016 93.6064 75.852 89.6054 73.6856 87.5508C71.5726 85.5468 57.3294 71.1142 56.1378 69.9247C54.9992 68.788 53.9715 67.6539 54.9463 66.6806C55.9212 65.7074 56.5776 65.2749 56.8961 64.9505ZM54.1881 57.4891L59.3874 52.1905C59.4235 51.5777 59.7663 50.4153 60.7956 50.244C62.0954 50.0277 62.9734 51.7808 63.0703 51.9742C63.1786 52.1905 63.1786 53.0691 62.2037 53.9206C61.5105 54.5262 57.5099 58.6426 55.5962 60.625C55.2713 60.9495 54.4479 61.6614 53.1049 60.7332C51.6967 59.76 52.0217 57.381 54.1881 57.4891Z" stroke="#060F1A"/>
</svg>
