<svg width="110" height="108" viewBox="0 0 110 108" fill="none" xmlns="http://www.w3.org/2000/svg">
<path d="M5.99997 45.5C2.8333 50.8333 -1.40003 66.2 6.99997 85" stroke="black"/>
<circle cx="10" cy="94" r="9.5" stroke="black"/>
<circle cx="39.5" cy="7.5" r="7" stroke="black"/>
<circle cx="104.5" cy="69.5" r="5" stroke="black"/>
<circle cx="8.48822" cy="42.4881" r="4" transform="rotate(14.5845 8.48822 42.4881)" stroke="black"/>
<path d="M47 7.49976C64.5 7.49975 99.5 18.5 104 63.9998" stroke="black" stroke-linecap="round"/>
<path d="M45 106.5C58.1667 107 85.7 100 90.5 68" stroke="black" stroke-linecap="round"/>
<path d="M24.5 25.5C37.8333 18.3333 68.5 11.5 84.5 41.5" stroke="black" stroke-linecap="round"/>
<path d="M48 77C56.2843 77 63 70.2843 63 62C63 53.7157 56.2843 47 48 47C39.7157 47 33 53.7157 33 62C33 70.2843 39.7157 77 48 77Z" stroke="black" stroke-linecap="round" stroke-linejoin="round"/>
<path d="M70.0364 71.6364C69.631 72.5549 69.51 73.5739 69.6892 74.5618C69.8683 75.5497 70.3393 76.4613 71.0414 77.1791L71.2241 77.3618C71.7904 77.9275 72.2397 78.5993 72.5462 79.3387C72.8527 80.0781 73.0105 80.8707 73.0105 81.6711C73.0105 82.4716 72.8527 83.2642 72.5462 84.0036C72.2397 84.743 71.7904 85.4148 71.2241 85.9805C70.6584 86.5468 69.9867 86.996 69.2472 87.3025C68.5078 87.6091 67.7152 87.7668 66.9148 87.7668C66.1143 87.7668 65.3217 87.6091 64.5823 87.3025C63.8429 86.996 63.1711 86.5468 62.6055 85.9805L62.4227 85.7977C61.705 85.0956 60.7934 84.6247 59.8054 84.4455C58.8175 84.2664 57.7986 84.3873 56.88 84.7927C55.9792 85.1788 55.211 85.8198 54.6699 86.6369C54.1288 87.4539 53.8385 88.4114 53.8345 89.3914V89.9091C53.8345 91.5245 53.1928 93.0737 52.0506 94.216C50.9083 95.3583 49.359 96 47.7436 96C46.1282 96 44.579 95.3583 43.4367 94.216C42.2944 93.0737 41.6527 91.5245 41.6527 89.9091V89.635C41.6291 88.627 41.3029 87.6493 40.7163 86.8292C40.1297 86.0091 39.31 85.3844 38.3636 85.0364C37.4451 84.631 36.4261 84.51 35.4382 84.6892C34.4503 84.8683 33.5387 85.3393 32.8209 86.0414L32.6382 86.2241C32.0725 86.7904 31.4007 87.2397 30.6613 87.5462C29.9219 87.8527 29.1293 88.0105 28.3289 88.0105C27.5284 88.0105 26.7358 87.8527 25.9964 87.5462C25.257 87.2397 24.5852 86.7904 24.0195 86.2241C23.4532 85.6584 23.004 84.9867 22.6975 84.2472C22.3909 83.5078 22.2332 82.7152 22.2332 81.9148C22.2332 81.1143 22.3909 80.3217 22.6975 79.5823C23.004 78.8429 23.4532 78.1711 24.0195 77.6055L24.2023 77.4227C24.9044 76.705 25.3753 75.7934 25.5545 74.8054C25.7336 73.8175 25.6127 72.7986 25.2073 71.88C24.8212 70.9792 24.1802 70.211 23.3631 69.6699C22.5461 69.1288 21.5886 68.8385 20.6086 68.8345H20.0909C18.4755 68.8345 16.9263 68.1928 15.784 67.0506C14.6417 65.9083 14 64.359 14 62.7436C14 61.1282 14.6417 59.579 15.784 58.4367C16.9263 57.2944 18.4755 56.6527 20.0909 56.6527H20.365C21.373 56.6291 22.3507 56.3029 23.1708 55.7163C23.9909 55.1297 24.6156 54.31 24.9636 53.3636C25.369 52.4451 25.49 51.4261 25.3108 50.4382C25.1317 49.4503 24.6607 48.5387 23.9586 47.8209L23.7759 47.6382C23.2096 47.0725 22.7603 46.4007 22.4538 45.6613C22.1473 44.9219 21.9895 44.1293 21.9895 43.3289C21.9895 42.5284 22.1473 41.7358 22.4538 40.9964C22.7603 40.257 23.2096 39.5852 23.7759 39.0195C24.3416 38.4532 25.0133 38.004 25.7528 37.6975C26.4922 37.3909 27.2848 37.2332 28.0852 37.2332C28.8857 37.2332 29.6783 37.3909 30.4177 37.6975C31.1571 38.004 31.8289 38.4532 32.3945 39.0195L32.5773 39.2023C33.295 39.9044 34.2066 40.3753 35.1946 40.5545C36.1825 40.7336 37.2014 40.6127 38.12 40.2073H38.3636C39.2644 39.8212 40.0326 39.1802 40.5737 38.3631C41.1148 37.5461 41.4052 36.5886 41.4091 35.6086V35.0909C41.4091 33.4755 42.0508 31.9263 43.1931 30.784C44.3353 29.6417 45.8846 29 47.5 29C49.1154 29 50.6647 29.6417 51.8069 30.784C52.9492 31.9263 53.5909 33.4755 53.5909 35.0909V35.365C53.5948 36.345 53.8852 37.3024 54.4263 38.1195C54.9674 38.9366 55.7356 39.5776 56.6364 39.9636C57.5549 40.369 58.5739 40.49 59.5618 40.3108C60.5497 40.1317 61.4613 39.6607 62.1791 38.9586L62.3618 38.7759C62.9275 38.2096 63.5993 37.7603 64.3387 37.4538C65.0781 37.1473 65.8707 36.9895 66.6711 36.9895C67.4716 36.9895 68.2642 37.1473 69.0036 37.4538C69.743 37.7603 70.4148 38.2096 70.9805 38.7759C71.5468 39.3416 71.996 40.0133 72.3025 40.7528C72.6091 41.4922 72.7668 42.2848 72.7668 43.0852C72.7668 43.8857 72.6091 44.6783 72.3025 45.4177C71.996 46.1571 71.5468 46.8289 70.9805 47.3945L70.7977 47.5773C70.0956 48.295 69.6247 49.2066 69.4455 50.1946C69.2664 51.1825 69.3873 52.2014 69.7927 53.12V53.3636C70.1788 54.2644 70.8198 55.0326 71.6369 55.5737C72.4539 56.1148 73.4114 56.4052 74.3914 56.4091H74.9091C76.5245 56.4091 78.0737 57.0508 79.216 58.1931C80.3583 59.3353 81 60.8846 81 62.5C81 64.1154 80.3583 65.6647 79.216 66.8069C78.0737 67.9492 76.5245 68.5909 74.9091 68.5909H74.635C73.655 68.5948 72.6976 68.8852 71.8805 69.4263C71.0634 69.9674 70.4224 70.7356 70.0364 71.6364Z" stroke="black" stroke-linecap="round" stroke-linejoin="round"/>
<circle cx="90.5" cy="60.5" r="7" stroke="black"/>
</svg>
