<svg width="1922" height="447" viewBox="0 0 1922 447" fill="none" xmlns="http://www.w3.org/2000/svg">
<path d="M0 42L960.5 283.5L1921 42V447H0V42Z" fill="white"/>
<path d="M0 42L960.5 283.5L1921 42V357H0V42Z" fill="white"/>
<mask id="mask0_1301_2" style="mask-type:alpha" maskUnits="userSpaceOnUse" x="0" y="42" width="1921" height="405">
<path d="M0 42L960.5 283.5L1921 42V447H0V42Z" fill="white"/>
</mask>
<g mask="url(#mask0_1301_2)">
<g opacity="0.2" filter="url(#filter0_f_1301_2)">
<circle cx="34.5" cy="148.5" r="187.5" fill="#F08C00"/>
</g>
</g>
<path d="M1 45.5V42C311.667 118 935.4 270.7 945 273.5C957 277 962 277.5 966 276.5C969.2 275.7 1172.33 225.833 1273.5 201L1859 58.5L1921 43.5V45.5C1611.17 127.167 988.2 291.4 975 295C958.5 299.5 952.5 296 944 294C937.2 292.4 312.5 127.667 1 45.5Z" fill="#FFBB5C"/>
<defs>
<filter id="filter0_f_1301_2" x="-453" y="-339" width="975" height="975" filterUnits="userSpaceOnUse" color-interpolation-filters="sRGB">
<feFlood flood-opacity="0" result="BackgroundImageFix"/>
<feBlend mode="normal" in="SourceGraphic" in2="BackgroundImageFix" result="shape"/>
<feGaussianBlur stdDeviation="150" result="effect1_foregroundBlur_1301_2"/>
</filter>
</defs>
</svg>
