<svg width="211" height="73" viewBox="0 0 211 73" fill="none" xmlns="http://www.w3.org/2000/svg">
<path d="M72.8328 46.25C71.5495 46.25 70.3578 46.025 69.2578 45.575C68.1578 45.1083 67.1911 44.4667 66.3578 43.65C65.5411 42.8167 64.9078 41.85 64.4578 40.75C64.0245 39.65 63.8078 38.4667 63.8078 37.2C63.8078 35.9333 64.0245 34.75 64.4578 33.65C64.9078 32.55 65.5411 31.5917 66.3578 30.775C67.1911 29.9583 68.1495 29.3167 69.2328 28.85C70.3328 28.3833 71.5328 28.15 72.8328 28.15C74.2328 28.15 75.4661 28.3833 76.5328 28.85C77.5995 29.3 78.5411 29.925 79.3578 30.725L77.0578 33.025C76.5745 32.4917 75.9828 32.075 75.2828 31.775C74.5828 31.475 73.7661 31.325 72.8328 31.325C72.0161 31.325 71.2661 31.4667 70.5828 31.75C69.9161 32.0167 69.3328 32.4167 68.8328 32.95C68.3328 33.4667 67.9495 34.0917 67.6828 34.825C67.4161 35.5417 67.2828 36.3333 67.2828 37.2C67.2828 38.0833 67.4161 38.8833 67.6828 39.6C67.9495 40.3167 68.3328 40.9417 68.8328 41.475C69.3328 41.9917 69.9161 42.3917 70.5828 42.675C71.2661 42.9583 72.0161 43.1 72.8328 43.1C73.8161 43.1 74.6578 42.95 75.3578 42.65C76.0745 42.35 76.6745 41.925 77.1578 41.375L79.4578 43.675C78.6411 44.4917 77.6911 45.125 76.6078 45.575C75.5245 46.025 74.2661 46.25 72.8328 46.25ZM91.3385 46.275C90.0551 46.275 88.8551 46.0417 87.7385 45.575C86.6385 45.1083 85.6718 44.4667 84.8385 43.65C84.0218 42.8167 83.3801 41.85 82.9135 40.75C82.4468 39.6333 82.2135 38.4417 82.2135 37.175C82.2135 35.9083 82.4385 34.7333 82.8885 33.65C83.3551 32.55 83.9968 31.5917 84.8135 30.775C85.6468 29.9417 86.6135 29.3 87.7135 28.85C88.8135 28.3833 90.0051 28.15 91.2885 28.15C92.5885 28.15 93.7885 28.3833 94.8885 28.85C95.9885 29.3 96.9468 29.9417 97.7635 30.775C98.5968 31.5917 99.2468 32.55 99.7135 33.65C100.18 34.75 100.413 35.9333 100.413 37.2C100.413 38.4667 100.18 39.65 99.7135 40.75C99.2468 41.85 98.5968 42.8167 97.7635 43.65C96.9468 44.4667 95.9885 45.1083 94.8885 45.575C93.8051 46.0417 92.6218 46.275 91.3385 46.275ZM91.2885 43.1C92.4218 43.1 93.4051 42.85 94.2385 42.35C95.0718 41.85 95.7218 41.1583 96.1885 40.275C96.6718 39.3917 96.9135 38.3583 96.9135 37.175C96.9135 36.3083 96.7801 35.5167 96.5135 34.8C96.2468 34.0833 95.8635 33.4667 95.3635 32.95C94.8635 32.4167 94.2718 32.0083 93.5885 31.725C92.9051 31.4417 92.1385 31.3 91.2885 31.3C90.1885 31.3 89.2135 31.55 88.3635 32.05C87.5301 32.5333 86.8718 33.2167 86.3885 34.1C85.9218 34.9833 85.6885 36.0083 85.6885 37.175C85.6885 38.0583 85.8218 38.8667 86.0885 39.6C86.3718 40.3333 86.7551 40.9583 87.2385 41.475C87.7385 41.9917 88.3301 42.3917 89.0135 42.675C89.7135 42.9583 90.4718 43.1 91.2885 43.1ZM105.109 46V28.425H107.484L108.509 31.825V46H105.109ZM117.259 46L106.834 32.5L107.484 28.425L117.909 41.925L117.259 46ZM117.259 46L116.284 42.7V28.425H119.709V46H117.259ZM130.031 46.25C128.614 46.25 127.398 46.0083 126.381 45.525C125.381 45.0417 124.473 44.3167 123.656 43.35L125.906 41.1C126.423 41.7833 127.023 42.3167 127.706 42.7C128.389 43.0667 129.223 43.25 130.206 43.25C131.089 43.25 131.789 43.075 132.306 42.725C132.839 42.375 133.106 41.8917 133.106 41.275C133.106 40.7417 132.956 40.3083 132.656 39.975C132.356 39.6417 131.956 39.3583 131.456 39.125C130.973 38.8917 130.431 38.6833 129.831 38.5C129.248 38.3 128.656 38.075 128.056 37.825C127.473 37.575 126.931 37.2667 126.431 36.9C125.948 36.5167 125.556 36.0333 125.256 35.45C124.956 34.85 124.806 34.1 124.806 33.2C124.806 32.1333 125.064 31.225 125.581 30.475C126.098 29.725 126.806 29.15 127.706 28.75C128.606 28.35 129.623 28.15 130.756 28.15C131.956 28.15 133.039 28.375 134.006 28.825C134.973 29.275 135.764 29.8583 136.381 30.575L134.131 32.825C133.614 32.2583 133.081 31.8417 132.531 31.575C131.998 31.3083 131.389 31.175 130.706 31.175C129.923 31.175 129.306 31.325 128.856 31.625C128.406 31.925 128.181 32.3583 128.181 32.925C128.181 33.4083 128.331 33.8 128.631 34.1C128.931 34.4 129.323 34.6583 129.806 34.875C130.306 35.0917 130.848 35.3 131.431 35.5C132.031 35.7 132.623 35.925 133.206 36.175C133.806 36.425 134.348 36.75 134.831 37.15C135.331 37.55 135.731 38.0667 136.031 38.7C136.331 39.3167 136.481 40.0833 136.481 41C136.481 42.6333 135.906 43.9167 134.756 44.85C133.606 45.7833 132.031 46.25 130.031 46.25ZM144.806 46V28.8H148.231V46H144.806ZM139.206 31.45V28.425H153.831V31.45H139.206ZM160.679 38.65V36H164.754C165.587 36 166.229 35.7917 166.679 35.375C167.146 34.9417 167.379 34.35 167.379 33.6C167.379 32.9167 167.146 32.35 166.679 31.9C166.229 31.4333 165.587 31.2 164.754 31.2H160.679V28.425H165.054C166.187 28.425 167.179 28.65 168.029 29.1C168.896 29.5333 169.562 30.1333 170.029 30.9C170.512 31.6667 170.754 32.55 170.754 33.55C170.754 34.5833 170.512 35.4833 170.029 36.25C169.562 37 168.896 37.5917 168.029 38.025C167.162 38.4417 166.154 38.65 165.004 38.65H160.679ZM158.179 46V28.425H161.579V46H158.179ZM167.779 46L161.979 38.4L165.104 37.425L171.904 46H167.779ZM173.967 46L181.042 28.425H183.817L190.867 46H187.242L181.792 31.575H183.042L177.517 46H173.967ZM177.717 42.725V39.875H187.167V42.725H177.717ZM205.586 46L200.536 38.175H200.036L193.186 28.425H197.211L202.236 35.8H202.736L209.561 46H205.586ZM192.886 46L199.461 36.6L201.961 38.275L196.736 46H192.886ZM202.911 37.65L200.411 35.975L205.411 28.425H209.261L202.911 37.65Z" fill="white"/>
<path d="M34.7701 60.3281C21.8947 59.6854 11.6757 49.038 11.6757 36.0126C11.6757 23.0087 21.8947 12.3613 34.7701 11.7186V0H29.9498L28.3431 5.76288C25.3867 6.5127 22.6016 7.69098 20.0308 9.21204L14.825 6.27704L6.25562 14.825L9.21204 20.0522C7.69098 22.6016 6.5127 25.4081 5.76288 28.3645L0 29.9713V42.0755L5.76288 43.6822C6.5127 46.6386 7.69098 49.4237 9.21204 51.9945L6.25562 57.2003L14.825 65.7697L20.0308 62.8133C22.6016 64.3557 25.3867 65.5126 28.3431 66.2624L29.9498 72.0253H34.7701V60.3281Z" fill="white"/>
<path d="M48.5231 30.0769C45.8167 24.5438 40.9859 21.2169 35.9514 19.676C35.8059 19.6059 35.544 19.5359 35.4858 19.5359C36.3879 20.7616 37.1445 22.1624 37.6102 23.6332C38.5996 26.9251 38.1922 30.4972 36.417 33.9992C35.7477 35.3299 34.9038 36.4506 34.0889 37.5362C33.3905 38.4467 32.7212 39.3222 32.1682 40.3378C30.1312 43.9799 30.2476 48.2523 32.4593 51.7893C32.8085 52.3497 33.3032 52.91 33.7979 53.4353C36.126 55.5015 39.4144 56.1318 42.8775 54.5209C46.5733 52.7699 49.2215 49.2679 50.3274 44.7153C51.4914 39.9526 50.5893 34.3494 48.5231 30.0769Z" fill="url(#paint0_linear_282_732)"/>
<path d="M31.0761 52.9745C29.8878 51.0546 29.1922 48.9601 29.0184 46.8657C28.7865 44.8061 29.0473 42.5022 30.2646 40.0238C30.3032 39.954 30.3419 39.8841 30.3805 39.8143C30.4385 39.7212 30.4868 39.6165 30.5254 39.5002C30.5834 39.3838 30.651 39.2558 30.7283 39.1162C31.3659 37.9991 32.0904 37.0217 32.815 36.0792C33.5975 35.032 34.351 34.0546 34.9306 32.9026C35.945 30.878 36.9594 27.7363 35.945 24.3852C35.2784 22.1162 33.6554 20.1614 32.1194 18.3811C32.0035 18.2764 31.9455 18.2415 31.9455 18.2415C32.3223 22.186 30.0617 25.5022 28.5836 28.1203C28.033 26.6891 27.0766 25.572 25.7144 24.7692C27.2505 30.7733 20.5557 32.0648 24.3813 40.1983C22.0917 38.9416 21.657 36.2189 21.657 36.2189C19.2515 47.2147 24.4102 54.5104 33.0468 55.3133C32.3223 54.6151 31.5977 53.8123 31.0761 52.9745Z" fill="url(#paint1_linear_282_732)"/>
<defs>
<linearGradient id="paint0_linear_282_732" x1="40.7792" y1="19.5359" x2="40.7792" y2="55.4308" gradientUnits="userSpaceOnUse">
<stop stop-color="#FFBB5C"/>
<stop offset="1" stop-color="#FF9705" stop-opacity="0.86"/>
</linearGradient>
<linearGradient id="paint1_linear_282_732" x1="28.7154" y1="18.2415" x2="28.7154" y2="55.3133" gradientUnits="userSpaceOnUse">
<stop stop-color="#FFBB5C"/>
<stop offset="1" stop-color="#FF9705" stop-opacity="0.86"/>
</linearGradient>
</defs>
</svg>
