<svg width="141" height="141" viewBox="0 0 141 141" fill="none" xmlns="http://www.w3.org/2000/svg">
<circle cx="70.5" cy="70.5" r="70.5" fill="white"/>
<circle cx="70.5" cy="70.5" r="62" stroke="#E6E6E6"/>
<circle cx="71" cy="70" r="49.5" stroke="#E6E6E6"/>
<path d="M72.2131 94.8947C78.8741 94.0908 84.1282 88.7793 84.8459 82.0992C84.9895 80.7402 84.9895 60.2597 84.8459 58.9008C84.2047 52.9097 79.9077 47.9427 74.1081 46.4785C69.0358 45.1961 63.7913 46.689 60.2024 50.4215C58.2405 52.4695 57.0346 54.7472 56.4126 57.58L56.1924 58.5849V70.5V82.415L56.4126 83.4199C57.5993 88.8175 61.4465 92.9711 66.6241 94.4353C68.2606 94.9043 70.5766 95.0861 72.2131 94.8947ZM68.6338 91.88C63.8678 91.057 60.078 87.2863 59.2549 82.5777C59.0444 81.3718 59.0444 59.6281 59.2549 58.4222C59.9631 54.3357 62.9682 50.8713 66.9399 49.541C73.553 47.3398 80.6446 51.589 81.8313 58.4892C82.061 59.7812 82.061 81.2187 81.8313 82.5107C81.0178 87.2384 77.2567 91.0283 72.5577 91.8705C71.5145 92.0619 69.6866 92.0619 68.6338 91.88Z" fill="#9D9D9D"/>
<path d="M71.2656 85.0277C71.4379 84.9033 71.6771 84.6832 71.7824 84.5396C71.9738 84.2716 71.9834 84.1759 71.9834 80.4052C71.9834 76.6345 71.9738 76.5388 71.7824 76.2708C71.0742 75.3138 69.7918 75.3425 69.275 76.3378C69.0645 76.7589 69.0645 76.8164 69.0645 80.3957C69.0645 83.8314 69.074 84.0515 69.2559 84.4248C69.6195 85.1712 70.6148 85.4679 71.2656 85.0277Z" fill="#FFBB5C"/>
</svg>
