<svg width="16" height="17" viewBox="0 0 16 17" fill="none" xmlns="http://www.w3.org/2000/svg">
<path d="M0.053125 1.03164C0.084375 1.08164 1.45313 3.07227 3.09375 5.46289C4.73438 7.85352 6.07813 9.82227 6.07813 9.83789C6.07813 9.85664 4.73125 11.4379 3.08125 13.3566C1.43438 15.2723 0.065625 16.866 0.040625 16.8941C0 16.9441 0.04375 16.9473 0.684375 16.9473H1.37188L4.025 13.8629C5.48438 12.1691 6.69375 10.7754 6.70938 10.7723C6.72813 10.766 7.69688 12.1535 8.8625 13.8535L10.9844 16.9473H13.3094C15.5125 16.9473 15.6313 16.9441 15.6031 16.891C15.5875 16.8629 14.1656 14.791 12.4469 12.291C10.7281 9.79102 9.31875 7.73789 9.31875 7.72852C9.31875 7.71602 10.625 6.19102 12.2219 4.33789L15.1219 0.962891L14.45 0.953515C13.8969 0.947266 13.7688 0.953515 13.7281 0.991015C13.7 1.01602 12.5594 2.33789 11.1938 3.92539C9.82813 5.51602 8.7 6.80977 8.6875 6.80352C8.675 6.79414 7.7625 5.47539 6.65938 3.86914L4.65313 0.947266H2.325H0L0.053125 1.03164ZM8.85 8.93477C11.5219 12.7598 13.7156 15.9004 13.7188 15.9191C13.7281 15.9379 13.35 15.9441 12.675 15.941L11.6188 15.9316L6.75 8.96914C4.07188 5.13789 1.88125 1.99727 1.88125 1.99102C1.88125 1.98477 2.35625 1.97852 2.9375 1.97852L3.99063 1.98164L8.85 8.93477Z" fill="#D1D2D3"/>
</svg>
