<svg width="18" height="20" viewBox="0 0 18 20" fill="none" xmlns="http://www.w3.org/2000/svg">
<g clip-path="url(#clip0_191_10)">
<path d="M8.71578 0.480406C8.49781 0.57025 8.33609 0.703062 8.23414 0.871031C8.17789 0.960875 7.66812 2.24212 7.10211 3.71869C6.07906 6.38275 6.07203 6.40619 5.96304 6.42572C5.90328 6.43353 4.70094 6.55853 3.28765 6.69915C0.556014 6.97259 0.573592 6.96869 0.323983 7.20697C0.0814045 7.43353 -0.0521893 7.92181 0.0321857 8.26947C0.0532795 8.35931 0.123592 8.51165 0.186873 8.6054C0.246639 8.70306 1.14664 9.6054 2.18023 10.6093C3.21383 11.6093 4.10328 12.4765 4.15601 12.5351L4.25445 12.6367L3.67086 15.4687C3.29117 17.3202 3.08726 18.3827 3.08375 18.5351C3.08023 18.9492 3.27008 19.2929 3.61109 19.4765C3.85719 19.6132 4.15953 19.621 4.39508 19.5038C4.48297 19.4609 5.3689 18.8827 6.36383 18.2226C7.35875 17.5624 8.34312 16.9101 8.54703 16.7734C8.75094 16.6367 8.94429 16.5156 8.97242 16.5038C9.00055 16.4921 9.94273 17.0937 11.2365 17.9531C12.4529 18.7617 13.5181 19.4609 13.606 19.5038C13.8416 19.6249 14.1439 19.6132 14.39 19.4765C14.731 19.2929 14.9209 18.9492 14.9173 18.5351C14.9138 18.3827 14.7099 17.3202 14.3302 15.4687L13.7502 12.6367L13.8275 12.5546C13.8697 12.5077 14.7591 11.6406 15.8033 10.6249C16.8474 9.61322 17.7544 8.70306 17.8142 8.6054C17.9584 8.38665 18.0146 8.164 17.99 7.90228C17.9513 7.50384 17.7123 7.14837 17.3888 7.01165C17.2904 6.96869 16.3939 6.86322 14.5974 6.68353C13.142 6.53509 11.9431 6.40619 11.9361 6.39837C11.9291 6.39056 11.4509 5.164 10.8779 3.67181C10.3048 2.17962 9.79156 0.894468 9.73883 0.816343C9.52086 0.515562 9.02867 0.3515 8.71578 0.480406Z" fill="#FFBB5C"/>
</g>
<defs>
<clipPath id="clip0_191_10">
<rect width="18" height="20" fill="white"/>
</clipPath>
</defs>
</svg>
