<svg width="128" height="20" viewBox="0 0 128 20" fill="none" xmlns="http://www.w3.org/2000/svg">
<g clip-path="url(#clip0_267_1521)">
<path d="M9.68442 0.480406C9.44223 0.57025 9.26254 0.703062 9.14926 0.871031C9.08676 0.960875 8.52035 2.24212 7.89145 3.71869C6.75473 6.38275 6.74692 6.40619 6.62582 6.42572C6.55942 6.43353 5.22348 6.55853 3.65317 6.69915C0.61801 6.97259 0.637541 6.96869 0.360198 7.20697C0.0906664 7.43353 -0.0577711 7.92181 0.0359789 8.26947C0.0594164 8.35931 0.137541 8.51165 0.207854 8.6054C0.27426 8.70306 1.27426 9.6054 2.4227 10.6093C3.57114 11.6093 4.55942 12.4765 4.61801 12.5351L4.72739 12.6367L4.07895 15.4687C3.65707 17.3202 3.43051 18.3827 3.4266 18.5351C3.4227 18.9492 3.63364 19.2929 4.01254 19.4765C4.28598 19.6132 4.62192 19.621 4.88364 19.5038C4.98129 19.4609 5.96567 18.8827 7.07114 18.2226C8.1766 17.5624 9.27035 16.9101 9.49692 16.7734C9.72348 16.6367 9.93832 16.5156 9.96957 16.5038C10.0008 16.4921 11.0477 17.0937 12.4852 17.9531C13.8368 18.7617 15.0204 19.4609 15.118 19.5038C15.3797 19.6249 15.7157 19.6132 15.9891 19.4765C16.368 19.2929 16.5789 18.9492 16.575 18.5351C16.5711 18.3827 16.3446 17.3202 15.9227 15.4687L15.2782 12.6367L15.3641 12.5546C15.411 12.5077 16.3993 11.6406 17.5594 10.6249C18.7196 9.61322 19.7274 8.70306 19.7938 8.6054C19.9539 8.38665 20.0164 8.164 19.9891 7.90228C19.9461 7.50384 19.6805 7.14837 19.3211 7.01165C19.2118 6.96869 18.2157 6.86322 16.2196 6.68353C14.6024 6.53509 13.2704 6.40619 13.2625 6.39837C13.2547 6.39056 12.7235 5.164 12.0868 3.67181C11.45 2.17962 10.8797 0.894468 10.8211 0.816343C10.5789 0.515562 10.0321 0.3515 9.68442 0.480406Z" fill="#FFBB5C"/>
</g>
<g clip-path="url(#clip1_267_1521)">
<path d="M64.7148 0.480406C64.4968 0.57025 64.3351 0.703062 64.2332 0.871031C64.1769 0.960875 63.6671 2.24212 63.1011 3.71869C62.0781 6.38275 62.0711 6.40619 61.9621 6.42572C61.9023 6.43353 60.7 6.55853 59.2867 6.69915C56.555 6.97259 56.5726 6.96869 56.323 7.20697C56.0804 7.43353 55.9468 7.92181 56.0312 8.26947C56.0523 8.35931 56.1226 8.51165 56.1859 8.6054C56.2457 8.70306 57.1457 9.6054 58.1793 10.6093C59.2128 11.6093 60.1023 12.4765 60.155 12.5351L60.2535 12.6367L59.6699 15.4687C59.2902 17.3202 59.0863 18.3827 59.0828 18.5351C59.0793 18.9492 59.2691 19.2929 59.6101 19.4765C59.8562 19.6132 60.1586 19.621 60.3941 19.5038C60.482 19.4609 61.3679 18.8827 62.3628 18.2226C63.3578 17.5624 64.3421 16.9101 64.5461 16.7734C64.75 16.6367 64.9433 16.5156 64.9714 16.5038C64.9996 16.4921 65.9418 17.0937 67.2355 17.9531C68.4519 18.7617 69.5171 19.4609 69.605 19.5038C69.8406 19.6249 70.1429 19.6132 70.389 19.4765C70.73 19.2929 70.9199 18.9492 70.9164 18.5351C70.9128 18.3827 70.7089 17.3202 70.3293 15.4687L69.7492 12.6367L69.8265 12.5546C69.8687 12.5077 70.7582 11.6406 71.8023 10.6249C72.8464 9.61322 73.7535 8.70306 73.8132 8.6054C73.9574 8.38665 74.0136 8.164 73.989 7.90228C73.9503 7.50384 73.7113 7.14837 73.3878 7.01165C73.2894 6.96869 72.3929 6.86322 70.5964 6.68353C69.141 6.53509 67.9421 6.40619 67.9351 6.39837C67.9281 6.39056 67.45 5.164 66.8769 3.67181C66.3039 2.17962 65.7906 0.894468 65.7379 0.816343C65.5199 0.515562 65.0277 0.3515 64.7148 0.480406Z" fill="#FFBB5C"/>
</g>
<g clip-path="url(#clip2_267_1521)">
<path d="M37.7148 0.480406C37.4968 0.57025 37.3351 0.703062 37.2332 0.871031C37.1769 0.960875 36.6671 2.24212 36.1011 3.71869C35.0781 6.38275 35.0711 6.40619 34.9621 6.42572C34.9023 6.43353 33.7 6.55853 32.2867 6.69915C29.555 6.97259 29.5726 6.96869 29.323 7.20697C29.0804 7.43353 28.9468 7.92181 29.0312 8.26947C29.0523 8.35931 29.1226 8.51165 29.1859 8.6054C29.2457 8.70306 30.1457 9.6054 31.1793 10.6093C32.2128 11.6093 33.1023 12.4765 33.155 12.5351L33.2535 12.6367L32.6699 15.4687C32.2902 17.3202 32.0863 18.3827 32.0828 18.5351C32.0793 18.9492 32.2691 19.2929 32.6101 19.4765C32.8562 19.6132 33.1586 19.621 33.3941 19.5038C33.482 19.4609 34.3679 18.8827 35.3628 18.2226C36.3578 17.5624 37.3421 16.9101 37.5461 16.7734C37.75 16.6367 37.9433 16.5156 37.9714 16.5038C37.9996 16.4921 38.9418 17.0937 40.2355 17.9531C41.4519 18.7617 42.5171 19.4609 42.605 19.5038C42.8406 19.6249 43.1429 19.6132 43.389 19.4765C43.73 19.2929 43.9199 18.9492 43.9164 18.5351C43.9128 18.3827 43.7089 17.3202 43.3293 15.4687L42.7492 12.6367L42.8265 12.5546C42.8687 12.5077 43.7582 11.6406 44.8023 10.6249C45.8464 9.61322 46.7535 8.70306 46.8132 8.6054C46.9574 8.38665 47.0136 8.164 46.989 7.90228C46.9503 7.50384 46.7113 7.14837 46.3878 7.01165C46.2894 6.96869 45.3929 6.86322 43.5964 6.68353C42.141 6.53509 40.9421 6.40619 40.9351 6.39837C40.9281 6.39056 40.45 5.164 39.8769 3.67181C39.3039 2.17962 38.7906 0.894468 38.7379 0.816343C38.5199 0.515562 38.0277 0.3515 37.7148 0.480406Z" fill="#FFBB5C"/>
</g>
<g clip-path="url(#clip3_267_1521)">
<path d="M91.7148 0.480406C91.4968 0.57025 91.3351 0.703062 91.2332 0.871031C91.1769 0.960875 90.6671 2.24212 90.1011 3.71869C89.0781 6.38275 89.0711 6.40619 88.9621 6.42572C88.9023 6.43353 87.7 6.55853 86.2867 6.69915C83.555 6.97259 83.5726 6.96869 83.323 7.20697C83.0804 7.43353 82.9468 7.92181 83.0312 8.26947C83.0523 8.35931 83.1226 8.51165 83.1859 8.6054C83.2457 8.70306 84.1457 9.6054 85.1793 10.6093C86.2128 11.6093 87.1023 12.4765 87.155 12.5351L87.2535 12.6367L86.6699 15.4687C86.2902 17.3202 86.0863 18.3827 86.0828 18.5351C86.0793 18.9492 86.2691 19.2929 86.6101 19.4765C86.8562 19.6132 87.1586 19.621 87.3941 19.5038C87.482 19.4609 88.3679 18.8827 89.3628 18.2226C90.3578 17.5624 91.3421 16.9101 91.5461 16.7734C91.75 16.6367 91.9433 16.5156 91.9714 16.5038C91.9996 16.4921 92.9418 17.0937 94.2355 17.9531C95.4519 18.7617 96.5171 19.4609 96.605 19.5038C96.8406 19.6249 97.1429 19.6132 97.389 19.4765C97.73 19.2929 97.9199 18.9492 97.9164 18.5351C97.9128 18.3827 97.7089 17.3202 97.3293 15.4687L96.7492 12.6367L96.8265 12.5546C96.8687 12.5077 97.7582 11.6406 98.8023 10.6249C99.8464 9.61322 100.753 8.70306 100.813 8.6054C100.957 8.38665 101.014 8.164 100.989 7.90228C100.95 7.50384 100.711 7.14837 100.388 7.01165C100.289 6.96869 99.3929 6.86322 97.5964 6.68353C96.141 6.53509 94.9421 6.40619 94.9351 6.39837C94.9281 6.39056 94.45 5.164 93.8769 3.67181C93.3039 2.17962 92.7906 0.894468 92.7379 0.816343C92.5199 0.515562 92.0277 0.3515 91.7148 0.480406Z" fill="#FFBB5C"/>
</g>
<g clip-path="url(#clip4_267_1521)">
<path d="M118.715 0.480406C118.497 0.57025 118.335 0.703062 118.233 0.871031C118.177 0.960875 117.667 2.24212 117.101 3.71869C116.078 6.38275 116.071 6.40619 115.962 6.42572C115.902 6.43353 114.7 6.55853 113.287 6.69915C110.555 6.97259 110.573 6.96869 110.323 7.20697C110.08 7.43353 109.947 7.92181 110.031 8.26947C110.052 8.35931 110.123 8.51165 110.186 8.6054C110.246 8.70306 111.146 9.6054 112.179 10.6093C113.213 11.6093 114.102 12.4765 114.155 12.5351L114.253 12.6367L113.67 15.4687C113.29 17.3202 113.086 18.3827 113.083 18.5351C113.079 18.9492 113.269 19.2929 113.61 19.4765C113.856 19.6132 114.159 19.621 114.394 19.5038C114.482 19.4609 115.368 18.8827 116.363 18.2226C117.358 17.5624 118.342 16.9101 118.546 16.7734C118.75 16.6367 118.943 16.5156 118.971 16.5038C119 16.4921 119.942 17.0937 121.236 17.9531C122.452 18.7617 123.517 19.4609 123.605 19.5038C123.841 19.6249 124.143 19.6132 124.389 19.4765C124.73 19.2929 124.92 18.9492 124.916 18.5351C124.913 18.3827 124.709 17.3202 124.329 15.4687L123.749 12.6367L123.827 12.5546C123.869 12.5077 124.758 11.6406 125.802 10.6249C126.846 9.61322 127.753 8.70306 127.813 8.6054C127.957 8.38665 128.014 8.164 127.989 7.90228C127.95 7.50384 127.711 7.14837 127.388 7.01165C127.289 6.96869 126.393 6.86322 124.596 6.68353C123.141 6.53509 121.942 6.40619 121.935 6.39837C121.928 6.39056 121.45 5.164 120.877 3.67181C120.304 2.17962 119.791 0.894468 119.738 0.816343C119.52 0.515562 119.028 0.3515 118.715 0.480406Z" fill="#FFBB5C"/>
</g>
<defs>
<clipPath id="clip0_267_1521">
<rect width="20" height="20" fill="white"/>
</clipPath>
<clipPath id="clip1_267_1521">
<rect width="18" height="20" fill="white" transform="translate(56)"/>
</clipPath>
<clipPath id="clip2_267_1521">
<rect width="18" height="20" fill="white" transform="translate(29)"/>
</clipPath>
<clipPath id="clip3_267_1521">
<rect width="18" height="20" fill="white" transform="translate(83)"/>
</clipPath>
<clipPath id="clip4_267_1521">
<rect width="18" height="20" fill="white" transform="translate(110)"/>
</clipPath>
</defs>
</svg>
