<svg width="17" height="17" viewBox="0 0 17 17" fill="none" xmlns="http://www.w3.org/2000/svg">
<path d="M12.25 0.947266H4.75C2.67893 0.947266 1 2.6262 1 4.69727V12.1973C1 14.2683 2.67893 15.9473 4.75 15.9473H12.25C14.3211 15.9473 16 14.2683 16 12.1973V4.69727C16 2.6262 14.3211 0.947266 12.25 0.947266Z" stroke="#D1D2D3" stroke-linecap="round" stroke-linejoin="round"/>
<path d="M11.9621 7.93387C12.0701 8.66209 11.9457 9.40581 11.6067 10.0593C11.2676 10.7127 10.7311 11.2426 10.0736 11.5736C9.41598 11.9046 8.67078 12.0198 7.94396 11.9028C7.21713 11.7859 6.54568 11.4427 6.02513 10.9221C5.50457 10.4016 5.16141 9.73014 5.04446 9.00331C4.9275 8.27648 5.0427 7.53128 5.37368 6.8737C5.70466 6.21612 6.23456 5.67965 6.88801 5.34059C7.54145 5.00153 8.28518 4.87714 9.01339 4.98513C9.7562 5.09528 10.4439 5.44141 10.9749 5.97239C11.5059 6.50338 11.852 7.19107 11.9621 7.93387Z" stroke="#D1D2D3" stroke-linecap="round" stroke-linejoin="round"/>
</svg>
