<svg width="69" height="73" viewBox="0 0 69 73" fill="none" xmlns="http://www.w3.org/2000/svg">
<path d="M34.7701 60.3281C21.8947 59.6854 11.6757 49.038 11.6757 36.0126C11.6757 23.0087 21.8947 12.3613 34.7701 11.7186V0H29.9498L28.3431 5.76288C25.3867 6.5127 22.6016 7.69098 20.0308 9.21204L14.825 6.27704L6.25562 14.825L9.21204 20.0522C7.69098 22.6016 6.5127 25.4081 5.76288 28.3645L0 29.9713V42.0755L5.76288 43.6822C6.5127 46.6386 7.69098 49.4237 9.21204 51.9945L6.25562 57.2003L14.825 65.7697L20.0308 62.8133C22.6016 64.3557 25.3867 65.5126 28.3431 66.2624L29.9498 72.0253H34.7701V60.3281Z" fill="white"/>
<path d="M33.9994 60.3281C46.8749 59.6854 57.0938 49.038 57.0938 36.0126C57.0938 23.0087 46.8749 12.3613 33.9994 11.7186V0H38.8197L40.4264 5.76288C43.3829 6.5127 46.1679 7.69098 48.7387 9.21204L53.9446 6.27704L62.5139 14.825L59.5575 20.0522C61.0786 22.6016 62.2568 25.4081 63.0067 28.3645L68.7695 29.9713V42.0755L63.0067 43.6822C62.2568 46.6386 61.0786 49.4237 59.5575 51.9945L62.5139 57.2003L53.9446 65.7697L48.7387 62.8133C46.1679 64.3557 43.3829 65.5126 40.4264 66.2624L38.8197 72.0253H33.9994V60.3281Z" fill="white"/>
</svg>
